<?xml version="1.0" standalone="no"?>
<!DOCTYPE svg PUBLIC "-//W3C//DTD SVG 20010904//EN" "http://www.w3.org/TR/2001/REC-SVG-20010904/DTD/svg10.dtd">
<svg xmlns="http://www.w3.org/2000/svg" version="1.0" width="192.000000dp" height="192.000000dp" viewBox="0 0 192.000000 192.000000" preserveAspectRatio="xMidYMid meet" fill="#1c8000">

<g transform="translate(0.000000,192.000000) scale(0.100000,-0.100000)" fill="#1c8000" stroke="none">
<path d="M1061 1732 c-3 -28 -50 -62 -85 -62 -23 0 -39 -7 -48 -19 -7 -10 -31 -22 -54 -25 -33 -6 -40 -11 -40 -28 1 -18 -7 -23 -39 -30 -66 -13 -156 -41 -161 -50 -4 -5 9 -7 28 -4 18 3 96 11 173 16 141 11 185 24 185 55 0 8 5 15 10 15 14 0 13 -12 -4 -35 -7 -11 -22 -36 -33 -55 -10 -19 -34 -58 -52 -86 l-33 -52 -141 -21 c-78 -12 -189 -29 -247 -38 -109 -17 -132 -25 -114 -43 7 -7 25 -8 53 -1 l43 9 -6 -31 c-3 -18 -8 -68 -12 -112 -6 -71 -10 -84 -37 -112 -17 -18 -34 -33 -38 -33 -4 0 -15 23 -24 50 -9 28 -21 50 -25 50 -5 0 -6 -44 -3 -98 5 -80 3 -103 -11 -130 -10 -19 -20 -69 -23 -120 -6 -78 -9 -90 -35 -116 -30 -29 -35 -30 -112 -10 -21 5 -26 3 -26 -13 0 -28 51 -103 100 -147 29 -26 44 -48 44 -65 1 -18 12 -31 46 -51 33 -20 44 -32 43 -48 -2 -12 5 -26 15 -31 16 -8 296 -25 393 -23 28 0 66 10 96 26 49 25 51 25 129 11 43 -8 122 -17 174 -21 l95 -6 53 46 54 46 89 0 c88 0 90 1 127 35 31 27 47 34 75 33 28 -1 51 8 93 37 93 64 102 114 11 65 -63 -34 -208 -19 -253 25 l-22 23 -101 -29 c-152 -42 -267 -59 -409 -59 -216 0 -385 57 -506 169 -45 42 -85 107 -86 139 0 26 19 10 34 -29 9 -23 41 -66 72 -95 139 -136 390 -191 677 -149 123 18 312 72 329 93 11 13 10 15 -2 10 -8 -3 -40 -13 -70 -22 -30 -10 -64 -21 -75 -26 -40 -18 -182 -41 -285 -47 -156 -8 -267 14 -396 78 -95 46 -144 86 -229 182 -16 19 -46 67 -41 67 2 0 46 -42 98 -93 76 -76 109 -101 178 -135 130 -64 191 -76 360 -76 155 1 214 11 365 64 114 40 114 40 120 61 17 62 17 65 -3 34 -26 -40 -52 -62 -83 -70 l-26 -6 9 66 c5 37 8 79 6 94 -2 14 -8 -13 -12 -61 -5 -49 -12 -88 -16 -88 -20 0 -105 112 -141 186 -91 187 -76 352 46 516 44 60 75 80 137 88 39 5 51 3 58 -9 8 -13 9 -12 10 5 0 12 8 25 17 28 12 5 13 10 5 18 -8 8 -28 8 -74 0 -35 -6 -110 -18 -168 -27 -58 -8 -145 -21 -193 -29 l-89 -13 7 61 c3 34 13 103 21 153 9 51 13 103 11 115 -2 13 -5 17 -6 10z m-38 -264 c-8 -72 -18 -88 -53 -88 -17 0 -30 3 -30 6 0 11 75 134 82 134 4 0 4 -24 1 -52z m246 -129 c-154 -154 -182 -386 -66 -552 11 -16 62 -60 113 -98 52 -38 94 -71 94 -74 0 -10 -53 -26 -123 -35 -70 -10 -345 -16 -353 -7 -3 2 0 35 6 73 5 38 13 94 18 124 l7 55 36 -3 36 -3 -28 58 c-73 149 -48 324 63 445 24 25 55 49 71 52 15 4 27 4 27 1 0 -2 -20 -25 -44 -51 -54 -56 -91 -131 -106 -214 -14 -78 -6 -148 27 -222 28 -62 44 -81 85 -97 l27 -10 -18 32 c-71 128 -69 320 6 441 48 78 125 146 166 146 11 0 -3 -20 -44 -61z m-299 -50 c-97 -121 -107 -246 -32 -397 l26 -52 -20 -15 c-17 -11 -23 -29 -28 -92 -12 -136 -16 -153 -38 -153 -36 0 -132 32 -191 63 -146 77 -285 285 -223 336 11 9 16 3 25 -34 18 -73 96 -209 122 -213 21 -4 21 -3 -3 30 -57 77 -101 239 -91 336 10 106 47 180 96 193 26 7 37 -3 17 -16 -5 -3 -22 -32 -37 -63 -40 -86 -43 -186 -9 -294 30 -93 73 -168 96 -168 8 1 23 6 32 14 15 11 16 15 3 34 -33 46 -65 121 -80 191 -20 87 -11 156 37 259 26 56 31 62 59 62 l30 0 -29 -37 c-46 -59 -65 -130 -60 -226 7 -139 71 -261 130 -250 l26 5 -35 66 c-49 93 -63 145 -63 232 0 59 6 86 25 127 31 67 66 103 101 103 l27 0 -20 -22 c-106 -116 -117 -244 -35 -409 33 -67 40 -74 69 -77 l33 -3 -30 63 c-48 103 -64 180 -51 250 19 111 90 218 145 218 25 0 25 -1 -24 -61z m-555 -319 c3 5 10 10 14 10 5 0 -1 -28 -12 -62 l-21 -63 -7 40 c-5 22 -8 51 -8 64 -1 19 2 21 13 12 10 -8 16 -9 21 -1z m-31 -292 c3 -139 24 -212 79 -275 24 -28 27 -34 13 -32 -28 6 -74 68 -96 132 -27 77 -29 330 -2 303 2 -3 5 -60 6 -128z m41 12 c4 -11 31 -47 60 -79 58 -62 134 -106 240 -137 42 -13 53 -19 37 -22 -29 -5 -146 34 -197 66 -22 13 -55 38 -74 56 -33 30 -91 112 -91 128 0 16 19 7 25 -12z m113 -222 c17 -24 12 -23 -27 7 -35 25 -111 120 -111 137 0 10 111 -105 138 -144z m792 12 c0 -5 -8 -10 -17 -10 -15 0 -16 2 -3 10 19 12 20 12 20 0z m-150 -30 c0 -5 -15 -10 -32 -9 -31 1 -32 1 -8 9 35 11 40 11 40 0z m-201 -16 c2 -2 -14 -4 -37 -4 -23 0 -42 4 -42 9 0 9 69 4 79 -5z"/>
</g>
</svg>
